<?xml version="1.0" encoding="UTF-8"?>
<svg xmlns="http://www.w3.org/2000/svg" version="1.1" width="300" height="300" viewBox="0 0 300 300"><rect x="0" y="0" width="300" height="300" fill="#ffffff"/><g transform="scale(14.286)"><g transform="translate(0,0)"><path fill-rule="evenodd" d="M8 0L8 2L9 2L9 4L8 4L8 10L6 10L6 9L7 9L7 8L5 8L5 10L2 10L2 11L1 11L1 12L0 12L0 13L3 13L3 12L4 12L4 13L5 13L5 12L6 12L6 13L8 13L8 14L9 14L9 15L8 15L8 16L9 16L9 18L8 18L8 21L9 21L9 18L10 18L10 19L11 19L11 18L10 18L10 17L21 17L21 16L19 16L19 15L20 15L20 14L19 14L19 12L20 12L20 10L17 10L17 11L16 11L16 12L17 12L17 14L16 14L16 13L15 13L15 12L14 12L14 13L13 13L13 14L12 14L12 13L10 13L10 11L11 11L11 9L17 9L17 8L12 8L12 7L13 7L13 6L12 6L12 7L11 7L11 5L10 5L10 7L9 7L9 4L10 4L10 3L11 3L11 4L12 4L12 5L13 5L13 3L12 3L12 2L13 2L13 0ZM10 1L10 2L11 2L11 1ZM0 8L0 9L3 9L3 8ZM19 8L19 9L21 9L21 8ZM8 10L8 11L6 11L6 12L8 12L8 13L9 13L9 12L8 12L8 11L10 11L10 10ZM14 10L14 11L15 11L15 10ZM2 11L2 12L3 12L3 11ZM4 11L4 12L5 12L5 11ZM12 11L12 12L13 12L13 11ZM17 11L17 12L19 12L19 11ZM10 14L10 15L11 15L11 14ZM14 14L14 15L15 15L15 14ZM18 14L18 15L19 15L19 14ZM12 15L12 16L13 16L13 15ZM16 15L16 16L17 16L17 15ZM14 18L14 19L15 19L15 18ZM18 18L18 19L19 19L19 20L18 20L18 21L21 21L21 20L20 20L20 19L21 19L21 18ZM12 19L12 20L13 20L13 19ZM16 19L16 20L17 20L17 19ZM14 20L14 21L15 21L15 20ZM0 0L0 7L7 7L7 0ZM1 1L1 6L6 6L6 1ZM2 2L2 5L5 5L5 2ZM14 0L14 7L21 7L21 0ZM15 1L15 6L20 6L20 1ZM16 2L16 5L19 5L19 2ZM0 14L0 21L7 21L7 14ZM1 15L1 20L6 20L6 15ZM2 16L2 19L5 19L5 16Z" fill="#000000"/></g></g></svg>
